<svg id="Layer_1" data-name="Layer 1" xmlns="http://www.w3.org/2000/svg" viewBox="0 0 253.5 61.75"><defs><style>.cls-1{fill:#1d9bf0;}</style></defs><title>Artboard 2</title><path d="M57.4,49.55l-6.95.31-10-9.24a.5.5,0,1,0-.68.73l10,9.19-1.36,5.6a.5.5,0,0,0,.37.6l.12,0a.5.5,0,0,0,.48-.38l1.22-5,4,4.1a.5.5,0,0,0,.71,0,.49.49,0,0,0,0-.7l-3.82-4,6-.27a.5.5,0,1,0,0-1Z"/><path class="cls-1" d="M56,19.48c0,.63,0,1.27,0,1.89A33.59,33.59,0,0,1,36.22,50.1h0a33.4,33.4,0,0,1-13.82,3A33.66,33.66,0,0,1,10,50.72a27,27,0,0,1-7.14-5.4l8.31-7.86.72-.68A29.31,29.31,0,0,1,2.27,18.94c0-.51,0-1,0-1.53a22.07,22.07,0,0,1,.14-2.58l27.39,6.89.15-2.09A27.28,27.28,0,0,1,32,9c2.85-6.09,9.31-8,15-6.45s7.64,7.64,7.64,7.64l.12.13,2.67-.5,5.62-1Z"/><path d="M42.6,56.46l-6.1-3.33L34,44.61a.51.51,0,0,0-.62-.35.5.5,0,0,0-.34.62l2.43,8.44-4.06,4.09a.5.5,0,0,0,0,.71.5.5,0,0,0,.71,0l3.63-3.65L37.06,60a.5.5,0,0,0,.48.39h.12a.51.51,0,0,0,.37-.6l-1.22-5.36,5.31,2.9a.53.53,0,0,0,.24.06.51.51,0,0,0,.44-.26A.5.5,0,0,0,42.6,56.46Z"/><path d="M78.06,16.62h22.09V26l-5.79-.26V45.53H83.85V25.75L78.06,26Z"/><path d="M113.31,16.62,117,33.88h.23c.1-.9.22-1.79.35-2.69a21.27,21.27,0,0,1,.53-2.64l3.07-11.93h8.05l3.95,17.26h.23c.08-.85.17-1.7.27-2.57a20.22,20.22,0,0,1,.46-2.53L137,16.62h10.92l-10.2,28.91h-9.16l-3.3-15.72h-.34c-.05.74-.11,1.48-.18,2.21a13.34,13.34,0,0,1-.36,2.16l-2.91,11.35h-8.94L102.42,16.62Z"/><path d="M150.31,24.53h10.51v21H150.31Z"/><path d="M150.31,16.51h10.51v5.74H150.31Z"/><path d="M187.12,28.35a14.37,14.37,0,0,0-2.81-2.05,6.89,6.89,0,0,0-3.36-.86,5.67,5.67,0,0,0-2.22.44,6,6,0,0,0-1.83,1.21,5.48,5.48,0,0,0-1.22,1.78,5.39,5.39,0,0,0-.44,2.21,5.21,5.21,0,0,0,.48,2.22A5.59,5.59,0,0,0,177,35.08a6.23,6.23,0,0,0,1.86,1.19,5.63,5.63,0,0,0,2.24.44,7.22,7.22,0,0,0,3.3-.73A10.67,10.67,0,0,0,187.12,34l-.3,10.81a7.46,7.46,0,0,1-1.63.52q-1,.21-2,.36c-.7.11-1.39.18-2.08.22s-1.27.05-1.73.05a14.48,14.48,0,0,1-14.69-14.65,15,15,0,0,1,9.17-14,14.9,14.9,0,0,1,5.94-1.19,20.64,20.64,0,0,1,3.59.31,22.61,22.61,0,0,1,3.47.88Z"/><path d="M190.92,16.62h10.24l-.23,12.54h.23a6.84,6.84,0,0,1,.61-1.69c.28-.54.56-1.06.84-1.57l5.07-9.28h11.46l-9,14.07,10,14.84H207.91l-5-8.74c-.31-.56-.64-1.12-1-1.67a4.79,4.79,0,0,1-.75-1.71h-.23l.23,12.12H190.92Z"/><path d="M232.51,16.62l3.22,7.55H236c.15-.46.3-.92.44-1.38a10.86,10.86,0,0,1,.51-1.34l2.07-4.83h11.82L241,33.07V45.53H230.71V33.07L220.62,16.62Z"/><path d="M44,15.28A3.33,3.33,0,0,1,40.71,12a.5.5,0,1,1,1,0,2.34,2.34,0,0,0,4.67,0,.5.5,0,0,1,.5-.5.5.5,0,0,1,.5.5A3.34,3.34,0,0,1,44,15.28Z"/></svg>